<svg width="32" height="32" viewBox="0 0 32 32" fill="none" xmlns="http://www.w3.org/2000/svg">
<path d="M18.9091 16L16 18.9091L13.0909 16L16 13.0909L18.9091 16ZM16 7.27273L19.0836 10.3564L22.72 6.72L16 0L9.28 6.72L12.9164 10.3564L16 7.27273ZM7.27273 16L10.3564 12.9164L6.72 9.28L0 16L6.72 22.72L10.3564 19.0836L7.27273 16ZM24.7273 16L21.6436 19.0836L25.28 22.72L32 16L25.28 9.28L21.6436 12.9164L24.7273 16ZM16 24.7273L12.9164 21.6436L9.28 25.28L16 32L22.72 25.28L19.0836 21.6436L16 24.7273Z" fill="white"/>
</svg>
